name rise30.2954peak35.7071fall66.7804.mot
datacolumns 19
datarows 33
range 21.01158800000000 21.06492500000000
endheader
time	ground_force1_vx	ground_force1_vy	ground_force1_vz	ground_force1_px	ground_force1_py	ground_force1_pz	ground_force2_vx	ground_force2_vy	ground_force2_vz	ground_force2_px	ground_force2_py	ground_force2_pz	ground_torque1_x	ground_torque1_y	ground_torque1_z	ground_torque2_x	ground_torque2_y	ground_torque2_z	
21.01158800000000	6.73496200000000	719.23954000000003	43.84004700000000	0.15406200000000	0.00000000000000	0.12643700000000	0.00000000000000	0.00000000000000	0.00000000000000	0.00000000000000	0.00000000000000	0.00000000000000	0.00000000000000	12.70384900000000	0.00000000000000	0.00000000000000	0.00000000000000	0.00000000000000	
21.01325500000000	6.38464100000000	720.53601800000001	43.99110400000000	0.15319100000000	0.00000000000000	0.12645200000000	0.00000000000000	0.00000000000000	0.00000000000000	0.00000000000000	0.00000000000000	0.00000000000000	0.00000000000000	12.77227600000000	0.00000000000000	0.00000000000000	0.00000000000000	0.00000000000000	
21.01492800000000	6.01111100000000	721.83187999999996	44.14670600000000	0.15229700000000	0.00000000000000	0.12646900000000	0.00000000000000	0.00000000000000	0.00000000000000	0.00000000000000	0.00000000000000	0.00000000000000	0.00000000000000	12.84612100000000	0.00000000000000	0.00000000000000	0.00000000000000	0.00000000000000	
21.01659100000000	5.61396800000000	723.12546899999995	44.30638900000000	0.15138000000000	0.00000000000000	0.12648900000000	0.00000000000000	0.00000000000000	0.00000000000000	0.00000000000000	0.00000000000000	0.00000000000000	0.00000000000000	12.92534300000000	0.00000000000000	0.00000000000000	0.00000000000000	0.00000000000000	
21.01826100000000	5.19288000000000	724.41530799999998	44.46969300000000	0.15044100000000	0.00000000000000	0.12651100000000	0.00000000000000	0.00000000000000	0.00000000000000	0.00000000000000	0.00000000000000	0.00000000000000	0.00000000000000	13.00989400000000	0.00000000000000	0.00000000000000	0.00000000000000	0.00000000000000	
21.01991900000000	4.74759100000000	725.70010600000001	44.63616200000000	0.14947800000000	0.00000000000000	0.12653600000000	0.00000000000000	0.00000000000000	0.00000000000000	0.00000000000000	0.00000000000000	0.00000000000000	0.00000000000000	13.09971800000000	0.00000000000000	0.00000000000000	0.00000000000000	0.00000000000000	
21.02159000000000	4.27791800000000	726.97875399999998	44.80534800000000	0.14849200000000	0.00000000000000	0.12656300000000	0.00000000000000	0.00000000000000	0.00000000000000	0.00000000000000	0.00000000000000	0.00000000000000	0.00000000000000	13.19475300000000	0.00000000000000	0.00000000000000	0.00000000000000	0.00000000000000	
21.02325400000000	3.78375300000000	728.25032899999997	44.97680800000000	0.14748500000000	0.00000000000000	0.12659200000000	0.00000000000000	0.00000000000000	0.00000000000000	0.00000000000000	0.00000000000000	0.00000000000000	0.00000000000000	13.29492700000000	0.00000000000000	0.00000000000000	0.00000000000000	0.00000000000000	
21.02492000000000	3.26506600000000	729.51409200000001	45.15010600000000	0.14645500000000	0.00000000000000	0.12662300000000	0.00000000000000	0.00000000000000	0.00000000000000	0.00000000000000	0.00000000000000	0.00000000000000	0.00000000000000	13.40016300000000	0.00000000000000	0.00000000000000	0.00000000000000	0.00000000000000	
21.02658600000000	2.72190400000000	730.76948100000004	45.32481600000000	0.14540500000000	0.00000000000000	0.12665700000000	0.00000000000000	0.00000000000000	0.00000000000000	0.00000000000000	0.00000000000000	0.00000000000000	0.00000000000000	13.51037200000000	0.00000000000000	0.00000000000000	0.00000000000000	0.00000000000000	
21.02825300000000	2.15438800000000	732.01611600000001	45.50052000000000	0.14433400000000	0.00000000000000	0.12669200000000	0.00000000000000	0.00000000000000	0.00000000000000	0.00000000000000	0.00000000000000	0.00000000000000	0.00000000000000	13.62546100000000	0.00000000000000	0.00000000000000	0.00000000000000	0.00000000000000	
21.02992500000000	1.56271800000000	733.25378799999999	45.67681400000000	0.14324300000000	0.00000000000000	0.12673000000000	0.00000000000000	0.00000000000000	0.00000000000000	0.00000000000000	0.00000000000000	0.00000000000000	0.00000000000000	13.74532300000000	0.00000000000000	0.00000000000000	0.00000000000000	0.00000000000000	
21.03159000000000	0.94716700000000	734.48245799999995	45.85329900000000	0.14213400000000	0.00000000000000	0.12676900000000	0.00000000000000	0.00000000000000	0.00000000000000	0.00000000000000	0.00000000000000	0.00000000000000	0.00000000000000	13.86984800000000	0.00000000000000	0.00000000000000	0.00000000000000	0.00000000000000	
21.03326000000000	0.30808400000000	735.70224800000005	46.02959500000000	0.14100700000000	0.00000000000000	0.12681000000000	0.00000000000000	0.00000000000000	0.00000000000000	0.00000000000000	0.00000000000000	0.00000000000000	0.00000000000000	13.99891200000000	0.00000000000000	0.00000000000000	0.00000000000000	0.00000000000000	
21.03492700000000	-0.35410900000000	736.91344000000004	46.20532900000000	0.13986300000000	0.00000000000000	0.12685200000000	0.00000000000000	0.00000000000000	0.00000000000000	0.00000000000000	0.00000000000000	0.00000000000000	0.00000000000000	14.13238400000000	0.00000000000000	0.00000000000000	0.00000000000000	0.00000000000000	
21.03659300000000	-1.03891900000000	738.11646099999996	46.38014600000000	0.13870400000000	0.00000000000000	0.12689600000000	0.00000000000000	0.00000000000000	0.00000000000000	0.00000000000000	0.00000000000000	0.00000000000000	0.00000000000000	14.27012600000000	0.00000000000000	0.00000000000000	0.00000000000000	0.00000000000000	
21.03825700000000	-1.74578000000000	739.31188299999997	46.55370300000000	0.13753100000000	0.00000000000000	0.12694200000000	0.00000000000000	0.00000000000000	0.00000000000000	0.00000000000000	0.00000000000000	0.00000000000000	0.00000000000000	14.41198600000000	0.00000000000000	0.00000000000000	0.00000000000000	0.00000000000000	
21.03992400000000	-2.47406200000000	740.50040700000000	46.72567400000000	0.13634400000000	0.00000000000000	0.12698800000000	0.00000000000000	0.00000000000000	0.00000000000000	0.00000000000000	0.00000000000000	0.00000000000000	0.00000000000000	14.55780800000000	0.00000000000000	0.00000000000000	0.00000000000000	0.00000000000000	
21.04159000000000	-3.22306600000000	741.68285900000001	46.89574900000000	0.13514500000000	0.00000000000000	0.12703600000000	0.00000000000000	0.00000000000000	0.00000000000000	0.00000000000000	0.00000000000000	0.00000000000000	0.00000000000000	14.70742200000000	0.00000000000000	0.00000000000000	0.00000000000000	0.00000000000000	
21.04326100000000	-3.99203000000000	742.86017800000002	47.06363300000000	0.13393600000000	0.00000000000000	0.12708400000000	0.00000000000000	0.00000000000000	0.00000000000000	0.00000000000000	0.00000000000000	0.00000000000000	0.00000000000000	14.86065300000000	0.00000000000000	0.00000000000000	0.00000000000000	0.00000000000000	
21.04492200000000	-4.78013300000000	744.03340600000001	47.22905200000000	0.13271800000000	0.00000000000000	0.12713400000000	0.00000000000000	0.00000000000000	0.00000000000000	0.00000000000000	0.00000000000000	0.00000000000000	0.00000000000000	15.01731500000000	0.00000000000000	0.00000000000000	0.00000000000000	0.00000000000000	
21.04659300000000	-5.58649500000000	745.20367499999998	47.39174800000000	0.13149200000000	0.00000000000000	0.12718400000000	0.00000000000000	0.00000000000000	0.00000000000000	0.00000000000000	0.00000000000000	0.00000000000000	0.00000000000000	15.17721100000000	0.00000000000000	0.00000000000000	0.00000000000000	0.00000000000000	
21.04825900000000	-6.41018000000000	746.37220100000002	47.55148300000000	0.13025900000000	0.00000000000000	0.12723500000000	0.00000000000000	0.00000000000000	0.00000000000000	0.00000000000000	0.00000000000000	0.00000000000000	0.00000000000000	15.34014000000000	0.00000000000000	0.00000000000000	0.00000000000000	0.00000000000000	
21.04992600000000	-7.25020200000000	747.54026499999998	47.70803700000000	0.12902200000000	0.00000000000000	0.12728600000000	0.00000000000000	0.00000000000000	0.00000000000000	0.00000000000000	0.00000000000000	0.00000000000000	0.00000000000000	15.50588700000000	0.00000000000000	0.00000000000000	0.00000000000000	0.00000000000000	
21.05159500000000	-8.10552700000000	748.70920999999998	47.86121400000000	0.12778100000000	0.00000000000000	0.12733800000000	0.00000000000000	0.00000000000000	0.00000000000000	0.00000000000000	0.00000000000000	0.00000000000000	0.00000000000000	15.67423100000000	0.00000000000000	0.00000000000000	0.00000000000000	0.00000000000000	
21.05325400000000	-8.97507600000000	749.88042099999996	48.01083500000000	0.12653800000000	0.00000000000000	0.12739000000000	0.00000000000000	0.00000000000000	0.00000000000000	0.00000000000000	0.00000000000000	0.00000000000000	0.00000000000000	15.84494400000000	0.00000000000000	0.00000000000000	0.00000000000000	0.00000000000000	
21.05492800000000	-9.85772800000000	751.05531800000006	48.15674400000000	0.12529300000000	0.00000000000000	0.12744200000000	0.00000000000000	0.00000000000000	0.00000000000000	0.00000000000000	0.00000000000000	0.00000000000000	0.00000000000000	16.01778700000000	0.00000000000000	0.00000000000000	0.00000000000000	0.00000000000000	
21.05658900000000	-10.75232600000000	752.23534099999995	48.29880800000000	0.12405000000000	0.00000000000000	0.12749400000000	0.00000000000000	0.00000000000000	0.00000000000000	0.00000000000000	0.00000000000000	0.00000000000000	0.00000000000000	16.19251600000000	0.00000000000000	0.00000000000000	0.00000000000000	0.00000000000000	
21.05826900000000	-11.65767900000000	753.42193999999995	48.43691500000000	0.12280800000000	0.00000000000000	0.12754600000000	0.00000000000000	0.00000000000000	0.00000000000000	0.00000000000000	0.00000000000000	0.00000000000000	0.00000000000000	16.36887600000000	0.00000000000000	0.00000000000000	0.00000000000000	0.00000000000000	
21.05992700000000	-12.57256900000000	754.61656000000005	48.57097500000000	0.12157000000000	0.00000000000000	0.12759800000000	0.00000000000000	0.00000000000000	0.00000000000000	0.00000000000000	0.00000000000000	0.00000000000000	0.00000000000000	16.54660700000000	0.00000000000000	0.00000000000000	0.00000000000000	0.00000000000000	
21.06158800000000	-13.49574900000000	755.82063400000004	48.70092100000000	0.12033600000000	0.00000000000000	0.12765000000000	0.00000000000000	0.00000000000000	0.00000000000000	0.00000000000000	0.00000000000000	0.00000000000000	0.00000000000000	16.72544400000000	0.00000000000000	0.00000000000000	0.00000000000000	0.00000000000000	
21.06326100000000	-14.42595300000000	757.03556500000002	48.82671000000000	0.11910800000000	0.00000000000000	0.12770200000000	0.00000000000000	0.00000000000000	0.00000000000000	0.00000000000000	0.00000000000000	0.00000000000000	0.00000000000000	16.90511200000000	0.00000000000000	0.00000000000000	0.00000000000000	0.00000000000000	
21.06492500000000	-15.36189900000000	758.26271999999994	48.94832200000000	0.11788600000000	0.00000000000000	0.12775300000000	0.00000000000000	0.00000000000000	0.00000000000000	0.00000000000000	0.00000000000000	0.00000000000000	0.00000000000000	17.08533300000000	0.00000000000000	0.00000000000000	0.00000000000000	0.00000000000000	
